<svg xmlns="http://www.w3.org/2000/svg" xmlns:xlink="http://www.w3.org/1999/xlink" xmlns:lucid="lucid" width="1871" height="1901"><g transform="translate(0 2518)" lucid:page-tab-id="0_0"><path d="M0-2517.67h1870.87V64H0z" fill="#1f1f1f"/><path d="M523.57-2474a6 6 0 0 1 6-6h811.73a6 6 0 0 1 6 6v94a6 6 0 0 1-6 6H529.57a6 6 0 0 1-6-6z" stroke="#000" stroke-opacity="0" stroke-width="3" fill="#fff" fill-opacity="0"/><use xlink:href="#a" transform="matrix(1,0,0,1,528.5691858320065,-2475) translate(136.4629629629631 36.88888888888887)"/><use xlink:href="#b" transform="matrix(1,0,0,1,528.5691858320065,-2475) translate(315.9567901234568 36.88888888888887)"/><use xlink:href="#c" transform="matrix(1,0,0,1,528.5691858320065,-2475) translate(501.49999999999994 36.88888888888887)"/><use xlink:href="#d" transform="matrix(1,0,0,1,528.5691858320065,-2475) translate(520.4259259259259 36.88888888888887)"/><use xlink:href="#e" transform="matrix(1,0,0,1,528.5691858320065,-2475) translate(230.67283950617292 72.44444444444441)"/><use xlink:href="#f" transform="matrix(1,0,0,1,528.5691858320065,-2475) translate(384.80864197530866 72.44444444444441)"/><use xlink:href="#g" transform="matrix(1,0,0,1,528.5691858320065,-2475) translate(421.78395061728395 72.44444444444441)"/><path d="M983.43-2320c17.68 0 32 17.9 32 40s-14.32 40-32 40h-96c-17.67 0-32-17.9-32-40s14.33-40 32-40z" stroke="#9e66e4" stroke-width="2" fill="#bb86fc"/><use xlink:href="#h" transform="matrix(1,0,0,1,860.4330708661416,-2315) translate(47.55 38.4625)"/><path d="M930.34-2056.83a9.63 9.63 0 0 1 10.2 0l118.23 73.66a3.74 3.74 0 0 1 0 6.34l-118.24 73.66a9.63 9.63 0 0 1-10.2 0l-118.23-73.66a3.74 3.74 0 0 1 0-6.34z" stroke="#9e66e4" stroke-width="2" fill="#bb86fc"/><use xlink:href="#i" transform="matrix(1,0,0,1,812.0078740157479,-2055) translate(46.029999999999994 65.9625)"/><use xlink:href="#j" transform="matrix(1,0,0,1,812.0078740157479,-2055) translate(114.98 65.9625)"/><use xlink:href="#k" transform="matrix(1,0,0,1,812.0078740157479,-2055) translate(62.42999999999999 87.5625)"/><use xlink:href="#l" transform="matrix(1,0,0,1,812.0078740157479,-2055) translate(114.02999999999999 87.5625)"/><path d="M975.43-2150c0 22.1-17.9 40-40 40s-40-17.9-40-40 17.9-40 40-40 40 17.9 40 40z" stroke="#9e66e4" stroke-width="2" fill="#bb86fc"/><use xlink:href="#m" transform="matrix(1,0,0,1,900.4330708661416,-2185) translate(29 38.4625)"/><path d="M935.43-2237.5v25.88" stroke="#03dac6" stroke-width="3" fill="none"/><path d="M936.93-2237.46h-3v-1.54h3z" stroke="#03dac6" stroke-width=".05" fill="#03dac6"/><path d="M935.43-2195.85l-4.63-14.27h9.27z" stroke="#03dac6" stroke-width="3" fill="#03dac6"/><path d="M935.43-2107.5v27.6" stroke="#03dac6" stroke-width="3" fill="none"/><path d="M935.42-2109l1.5-.05v1.6h-3v-1.64z" stroke="#03dac6" stroke-width=".05" fill="#03dac6"/><path d="M935.43-2064.14l-4.63-14.27h9.27z" stroke="#03dac6" stroke-width="3" fill="#03dac6"/><path d="M826.6-1814.73a10.1 10.1 0 0 1 8.86-5.27h199.1c16.18 0 29.3 48.08 29.3 107.4 0 59.32-13.12 107.4-29.3 107.4h-199.1a10.1 10.1 0 0 1-8.87-5.27l-52.86-96.86a11 11 0 0 1 0-10.54z" stroke="#9e66e4" stroke-width="2" fill="#bb86fc"/><use xlink:href="#n" transform="matrix(1,0,0,1,775.8661417322834,-1815) translate(62.99 28.10138888888889)"/><use xlink:href="#o" transform="matrix(1,0,0,1,775.8661417322834,-1815) translate(158.43938271604938 28.10138888888889)"/><use xlink:href="#p" transform="matrix(1,0,0,1,775.8661417322834,-1815) translate(192.3616049382716 28.10138888888889)"/><use xlink:href="#q" transform="matrix(1,0,0,1,775.8661417322834,-1815) translate(62.99 51.03472222222223)"/><use xlink:href="#r" transform="matrix(1,0,0,1,775.8661417322834,-1815) translate(62.99 73.96805555555557)"/><use xlink:href="#s" transform="matrix(1,0,0,1,775.8661417322834,-1815) translate(78.91592592592593 73.96805555555557)"/><use xlink:href="#t" transform="matrix(1,0,0,1,775.8661417322834,-1815) translate(90.54185185185186 73.96805555555557)"/><use xlink:href="#u" transform="matrix(1,0,0,1,775.8661417322834,-1815) translate(129.71962962962962 73.96805555555557)"/><use xlink:href="#v" transform="matrix(1,0,0,1,775.8661417322834,-1815) translate(62.99 96.9013888888889)"/><use xlink:href="#s" transform="matrix(1,0,0,1,775.8661417322834,-1815) translate(78.91592592592593 96.9013888888889)"/><use xlink:href="#w" transform="matrix(1,0,0,1,775.8661417322834,-1815) translate(90.54185185185186 96.9013888888889)"/><use xlink:href="#x" transform="matrix(1,0,0,1,775.8661417322834,-1815) translate(129.71962962962962 96.9013888888889)"/><use xlink:href="#y" transform="matrix(1,0,0,1,775.8661417322834,-1815) translate(62.99 119.83472222222224)"/><use xlink:href="#s" transform="matrix(1,0,0,1,775.8661417322834,-1815) translate(78.91592592592593 119.83472222222224)"/><use xlink:href="#z" transform="matrix(1,0,0,1,775.8661417322834,-1815) translate(90.54185185185186 119.83472222222224)"/><use xlink:href="#A" transform="matrix(1,0,0,1,775.8661417322834,-1815) translate(129.71962962962962 119.83472222222224)"/><use xlink:href="#B" transform="matrix(1,0,0,1,775.8661417322834,-1815) translate(62.99 142.76805555555558)"/><use xlink:href="#s" transform="matrix(1,0,0,1,775.8661417322834,-1815) translate(78.91592592592593 142.76805555555558)"/><use xlink:href="#C" transform="matrix(1,0,0,1,775.8661417322834,-1815) translate(90.54185185185186 142.76805555555558)"/><use xlink:href="#D" transform="matrix(1,0,0,1,775.8661417322834,-1815) translate(129.71962962962962 142.76805555555558)"/><use xlink:href="#E" transform="matrix(1,0,0,1,775.8661417322834,-1815) translate(62.99 165.7013888888889)"/><use xlink:href="#s" transform="matrix(1,0,0,1,775.8661417322834,-1815) translate(78.91592592592593 165.7013888888889)"/><use xlink:href="#F" transform="matrix(1,0,0,1,775.8661417322834,-1815) translate(90.54185185185186 165.7013888888889)"/><use xlink:href="#G" transform="matrix(1,0,0,1,775.8661417322834,-1815) translate(131.94925925925926 165.7013888888889)"/><use xlink:href="#H" transform="matrix(1,0,0,1,775.8661417322834,-1815) translate(62.99 188.63472222222225)"/><use xlink:href="#s" transform="matrix(1,0,0,1,775.8661417322834,-1815) translate(78.91592592592593 188.63472222222225)"/><use xlink:href="#F" transform="matrix(1,0,0,1,775.8661417322834,-1815) translate(90.54185185185186 188.63472222222225)"/><use xlink:href="#I" transform="matrix(1,0,0,1,775.8661417322834,-1815) translate(131.94925925925926 188.63472222222225)"/><use xlink:href="#J" transform="matrix(1,0,0,1,775.8661417322834,-1815) translate(163.74802469135804 188.63472222222225)"/><path d="M936.93-1841.6h-3v-8.44h3zm0-30.04h-3v-27.57h3z" stroke="#03dac6" stroke-width=".05" fill="#03dac6"/><path d="M934.25-1900.78l1.18.07 1.2-.08.3-.05v1.65h-3v-1.65z" fill="#03dac6"/><path d="M934.25-1900.8l1.18.06 1.18-.07.36-.06v1.7h-3.05v-1.7zm-.3 1.6h2.96v-1.6l-.28.04-1.2.07-1.17-.06-.3-.04z" stroke="#03dac6" stroke-width=".05" fill="#03dac6"/><path d="M935.43-1825.83l-4.63-14.26h9.27z" fill="#03dac6"/><path d="M935.43-1820.97l-6.7-20.62h13.4zm-2.57-17.62l2.57 7.92 2.57-7.9z" stroke="#03dac6" stroke-width=".05" fill="#03dac6"/><use xlink:href="#K" transform="matrix(1,0,0,1,919.9830706621385,-1871.6428419938495) translate(0 14.4)"/><path d="M840-1524.04a6.4 6.4 0 0 1 6-6.37l148-9.23a5.64 5.64 0 0 1 6 5.63v48a6 6 0 0 1-6 6H846a6 6 0 0 1-6-6z" stroke="#9e66e4" stroke-width="2" fill="#bb86fc"/><use xlink:href="#L" transform="matrix(1,0,0,1,845,-1525) translate(48.19135802469137 25.455555555555552)"/><path d="M917.67-1602.7v46.24" stroke="#03dac6" stroke-width="3" fill="none"/><path d="M919.17-1602.66h-3v-1.54h3z" stroke="#03dac6" stroke-width=".05" fill="#03dac6"/><path d="M917.67-1540.7l-4.63-14.26h9.27z" stroke="#03dac6" stroke-width="3" fill="#03dac6"/><path d="M915.2-1411.2a8 8 0 0 1 9.6 0l70.4 52.8a4.5 4.5 0 0 1 0 7.2l-70.4 52.8a8 8 0 0 1-9.6 0l-70.4-52.8a4.5 4.5 0 0 1 0-7.2z" stroke="#9e66e4" stroke-width="2" fill="#bb86fc"/><use xlink:href="#L" transform="matrix(1,0,0,1,845,-1409.7999999999997) translate(48.196358024691364 59.20555555555555)"/><path d="M920-1477.54v43.12" stroke="#03dac6" stroke-width="3" fill="none"/><path d="M921.5-1477.5h-3v-1.54h3z" stroke="#03dac6" stroke-width=".05" fill="#03dac6"/><path d="M920-1418.66l-4.64-14.26h9.28z" stroke="#03dac6" stroke-width="3" fill="#03dac6"/><path d="M766.54-1114.7a10 10 0 0 1 8.82-5.3h106c8.84 0 16 26.86 16 60s-7.16 60-16 60h-106a10 10 0 0 1-8.82-5.3l-26.35-49.4a11.25 11.25 0 0 1 0-10.6z" stroke="#9e66e4" stroke-width="2" fill="#bb86fc"/><use xlink:href="#M" transform="matrix(1,0,0,1,742.3622047244094,-1115) translate(18.254999999999995 48.775)"/><use xlink:href="#N" transform="matrix(1,0,0,1,742.3622047244094,-1115) translate(74.205 48.775)"/><use xlink:href="#O" transform="matrix(1,0,0,1,742.3622047244094,-1115) translate(33.08 70.375)"/><use xlink:href="#P" transform="matrix(1,0,0,1,742.3622047244094,-1115) translate(65.03 70.375)"/><use xlink:href="#Q" transform="matrix(1,0,0,1,742.3622047244094,-1115) translate(101.93 70.375)"/><path d="M957.36-720c0 22.1-17.9 40-40 40s-40-17.9-40-40 17.9-40 40-40 40 17.9 40 40z" stroke="#9e66e4" stroke-width="2" fill="#bb86fc"/><use xlink:href="#m" transform="matrix(1,0,0,1,882.3622047244094,-755) translate(29 38.4625)"/><path d="M755.76-954.2a7.8 7.8 0 0 1 7.55-5.8h128.06a4.6 4.6 0 0 1 4.46 5.8L878.96-891a7.8 7.8 0 0 1-7.54 5.8H743.36a4.6 4.6 0 0 1-4.45-5.8z" stroke="#9e66e4" stroke-width="2" fill="#bb86fc"/><use xlink:href="#R" transform="matrix(1,0,0,1,742.3622047244094,-954.9999999999999) translate(57.529999999999994 36.74375)"/><path d="M966.54-1113.38a10 10 0 0 1 8.82-5.3h106c8.84 0 16 26.87 16 60 0 33.15-7.16 60-16 60h-106a10 10 0 0 1-8.82-5.28l-26.35-49.42a11.25 11.25 0 0 1 0-10.58z" stroke="#9e66e4" stroke-width="2" fill="#bb86fc"/><use xlink:href="#M" transform="matrix(1,0,0,1,942.3622047244093,-1113.6692913385823) translate(18.254999999999995 48.775)"/><use xlink:href="#N" transform="matrix(1,0,0,1,942.3622047244093,-1113.6692913385823) translate(74.205 48.775)"/><use xlink:href="#O" transform="matrix(1,0,0,1,942.3622047244093,-1113.6692913385823) translate(19.604999999999997 70.375)"/><use xlink:href="#S" transform="matrix(1,0,0,1,942.3622047244093,-1113.6692913385823) translate(51.555 70.375)"/><use xlink:href="#T" transform="matrix(1,0,0,1,942.3622047244093,-1113.6692913385823) translate(88.455 70.375)"/><path d="M955.76-952.87a7.8 7.8 0 0 1 7.55-5.8h128.06a4.6 4.6 0 0 1 4.46 5.8l-16.86 63.2a7.8 7.8 0 0 1-7.54 5.8H943.36a4.6 4.6 0 0 1-4.45-5.8z" stroke="#9e66e4" stroke-width="2" fill="#bb86fc"/><use xlink:href="#U" transform="matrix(1,0,0,1,942.3622047244093,-953.6692913385822) translate(45.004999999999995 36.74375)"/><path d="M1166.54-1113.38a10 10 0 0 1 8.82-5.3h106c8.84 0 16 26.87 16 60 0 33.15-7.16 60-16 60h-106a10 10 0 0 1-8.82-5.28l-26.35-49.42a11.25 11.25 0 0 1 0-10.58z" stroke="#9e66e4" stroke-width="2" fill="#bb86fc"/><use xlink:href="#M" transform="matrix(1,0,0,1,1142.3622047244094,-1113.6692913385823) translate(18.254999999999995 48.775)"/><use xlink:href="#N" transform="matrix(1,0,0,1,1142.3622047244094,-1113.6692913385823) translate(74.205 48.775)"/><use xlink:href="#V" transform="matrix(1,0,0,1,1142.3622047244094,-1113.6692913385823) translate(53.555 70.375)"/><path d="M1155.76-952.87a7.8 7.8 0 0 1 7.55-5.8h128.06a4.6 4.6 0 0 1 4.46 5.8l-16.86 63.2a7.8 7.8 0 0 1-7.54 5.8h-128.06a4.6 4.6 0 0 1-4.45-5.8z" stroke="#9e66e4" stroke-width="2" fill="#bb86fc"/><use xlink:href="#W" transform="matrix(1,0,0,1,1142.3622047244094,-953.6692913385822) translate(47.529999999999994 36.74375)"/><path d="M566.54-1113.38a10 10 0 0 1 8.82-5.3h106c8.84 0 16 26.87 16 60 0 33.15-7.16 60-16 60h-106a10 10 0 0 1-8.82-5.28l-26.35-49.42a11.25 11.25 0 0 1 0-10.58z" stroke="#9e66e4" stroke-width="2" fill="#bb86fc"/><use xlink:href="#M" transform="matrix(1,0,0,1,542.3622047244094,-1113.6692913385823) translate(18.254999999999995 48.775)"/><use xlink:href="#N" transform="matrix(1,0,0,1,542.3622047244094,-1113.6692913385823) translate(74.205 48.775)"/><use xlink:href="#O" transform="matrix(1,0,0,1,542.3622047244094,-1113.6692913385823) translate(26.129999999999995 70.375)"/><use xlink:href="#X" transform="matrix(1,0,0,1,542.3622047244094,-1113.6692913385823) translate(58.08 70.375)"/><use xlink:href="#Y" transform="matrix(1,0,0,1,542.3622047244094,-1113.6692913385823) translate(94.97999999999999 70.375)"/><path d="M555.76-952.87a7.8 7.8 0 0 1 7.55-5.8h128.06a4.6 4.6 0 0 1 4.46 5.8l-16.86 63.2a7.8 7.8 0 0 1-7.54 5.8H543.36a4.6 4.6 0 0 1-4.45-5.8z" stroke="#9e66e4" stroke-width="2" fill="#bb86fc"/><use xlink:href="#Z" transform="matrix(1,0,0,1,542.3622047244094,-953.6692913385822) translate(52.005 36.74375)"/><path d="M366.54-1114.7a10 10 0 0 1 8.82-5.3h106c8.84 0 16 26.86 16 60s-7.16 60-16 60h-106a10 10 0 0 1-8.82-5.3l-26.35-49.4a11.25 11.25 0 0 1 0-10.6z" stroke="#9e66e4" stroke-width="2" fill="#bb86fc"/><use xlink:href="#M" transform="matrix(1,0,0,1,342.36220472440937,-1115) translate(18.254999999999995 48.775)"/><use xlink:href="#N" transform="matrix(1,0,0,1,342.36220472440937,-1115) translate(74.205 48.775)"/><use xlink:href="#O" transform="matrix(1,0,0,1,342.36220472440937,-1115) translate(32.605 70.375)"/><use xlink:href="#aa" transform="matrix(1,0,0,1,342.36220472440937,-1115) translate(64.555 70.375)"/><use xlink:href="#ab" transform="matrix(1,0,0,1,342.36220472440937,-1115) translate(101.455 70.375)"/><path d="M355.76-954.2a7.8 7.8 0 0 1 7.55-5.8h128.06a4.6 4.6 0 0 1 4.46 5.8L478.96-891a7.8 7.8 0 0 1-7.54 5.8H343.36a4.6 4.6 0 0 1-4.45-5.8z" stroke="#9e66e4" stroke-width="2" fill="#bb86fc"/><use xlink:href="#ac" transform="matrix(1,0,0,1,342.36220472440937,-954.9999999999999) translate(57.005 36.74375)"/><path d="M418.86-1141.58h-3l.02-14.06h3zm502.64-74.36l-.1 1.1-.26 1.16-.45 1.1-.63 1-.76.9-.9.75-1 .62-1.08.44-1.2.3-491.7.06-.76.06-.7.16-.64.27-.6.36-.54.46-.45.54-.37.6-.27.65-.16.64-.03 24.86h-3l.04-25.22.28-1.2.46-1.1.6-1 .78-.9.9-.75 1-.62 1.08-.44 1.15-.27 1.1-.1 491.46-.07.63-.15.64-.27.6-.36.54-.46.46-.54.37-.6.28-.65.16-.7.06-.76v-78.24h3z" stroke="#f2f3f5" stroke-width=".05" fill="#f2f3f5"/><path d="M918.84-1295.87l1.16.07 1.16-.07.34-.07v1.68h-3v-1.68z" fill="#f2f3f5"/><path d="M918.85-1295.9l1.15.08 1.15-.08.38-.07v1.74h-3.05v-1.74zm-.33 1.62h2.96v-1.63l-.32.05-1.16.08-1.16-.08-.32-.06z" stroke="#f2f3f5" stroke-width=".05" fill="#f2f3f5"/><path d="M417.36-1125.82l-4.63-14.27H422z" fill="#f2f3f5"/><path d="M417.36-1120.97l-6.7-20.62h13.4zm-2.57-17.62l2.56 7.93 2.57-7.92z" stroke="#f2f3f5" stroke-width=".05" fill="#f2f3f5"/><use xlink:href="#ad" transform="matrix(1,0,0,1,411.7449207737921,-1179.9026246719156) translate(0 16.177777777777777)"/><path d="M618.86-1140.25h-3l.02-11.4h3zm302.64-73.4l-.1 1.1-.26 1.15-.45 1.1-.63 1-.76.9-.9.76-1 .6-1.08.46-1.2.3-291.7.06-.76.06-.7.17-.64.28-.6.37-.54.46-.45.54-.37.6-.27.65-.16.62-.04 26.58h-3l.04-26.93.28-1.2.46-1.1.6-1 .78-.9.9-.76 1-.6 1.08-.45 1.15-.28 1.1-.1 291.46-.06.63-.14.64-.27.6-.38.54-.46.46-.53.37-.6.28-.66.16-.68.06-.78v-80.52h3z" stroke="#f2f3f5" stroke-width=".05" fill="#f2f3f5"/><path d="M918.84-1295.87l1.16.07 1.16-.07.34-.07v1.68h-3v-1.68z" fill="#f2f3f5"/><path d="M918.85-1295.9l1.15.08 1.15-.08.38-.07v1.74h-3.05v-1.74zm-.33 1.62h2.96v-1.63l-.32.05-1.16.08-1.16-.08-.32-.06z" stroke="#f2f3f5" stroke-width=".05" fill="#f2f3f5"/><path d="M617.36-1124.5l-4.63-14.25H622z" fill="#f2f3f5"/><path d="M617.36-1119.63l-6.7-20.62h13.4zm-2.57-17.62l2.56 7.9 2.57-7.9z" stroke="#f2f3f5" stroke-width=".05" fill="#f2f3f5"/><use xlink:href="#ae" transform="matrix(1,0,0,1,611.744920773792,-1175.9026246719156) translate(0 16.177777777777777)"/><path d="M818.86-1141.58h-3v-10.06h3zm102.64-72.74l-.1 1.1-.26 1.16-.45 1.1-.63 1-.76.9-.9.75-1 .6-1.08.46-1.2.28-91.7.08-.76.06-.7.16-.64.27-.6.38-.54.46-.45.54-.37.6-.27.65-.16.63-.04 27.24h-3l.04-27.6.28-1.2.46-1.1.6-1 .78-.9.9-.75 1-.62 1.08-.45 1.15-.27 1.1-.08 91.46-.08.63-.15.64-.28.6-.36.54-.46.46-.54.37-.6.28-.65.16-.68.06-.76v-79.86h3z" stroke="#f2f3f5" stroke-width=".05" fill="#f2f3f5"/><path d="M918.84-1295.87l1.16.07 1.16-.07.34-.07v1.68h-3v-1.68z" fill="#f2f3f5"/><path d="M918.85-1295.9l1.15.08 1.15-.08.38-.07v1.74h-3.05v-1.74zm-.33 1.62h2.96v-1.63l-.32.05-1.16.08-1.16-.08-.32-.06z" stroke="#f2f3f5" stroke-width=".05" fill="#f2f3f5"/><path d="M817.36-1125.82l-4.63-14.27H822z" fill="#f2f3f5"/><path d="M817.36-1120.97l-6.7-20.62h13.4zm-2.57-17.62l2.56 7.93 2.57-7.92z" stroke="#f2f3f5" stroke-width=".05" fill="#f2f3f5"/><use xlink:href="#af" transform="matrix(1,0,0,1,811.744920773792,-1175.9026246719156) translate(0 16.177777777777777)"/><path d="M1018.86-1140.26h-3v-9.92h3zm-97.36-73.52l.06.77.16.67.27.65.36.6.46.54.54.46.6.37.65.26.64.15 86.18.08 1.12.1 1.14.27 1.1.45 1 .6.9.78.75.9.62 1 .45 1.08.3 1.2.02 28.4h-3l-.03-28.04-.16-.63-.27-.66-.37-.6-.46-.53-.54-.45-.6-.37-.65-.27-.68-.16-.77-.06-86.42-.07-1.2-.28-1.1-.45-1-.6-.9-.78-.75-.9-.62-1-.44-1.1-.27-1.14-.1-1.12v-80.64h3z" stroke="#f2f3f5" stroke-width=".05" fill="#f2f3f5"/><path d="M918.84-1295.87l1.16.07 1.16-.07.34-.07v1.68h-3v-1.68z" fill="#f2f3f5"/><path d="M918.85-1295.9l1.15.08 1.15-.08.38-.07v1.74h-3.05v-1.74zm-.33 1.62h2.96v-1.63l-.32.05-1.16.08-1.16-.08-.32-.06z" stroke="#f2f3f5" stroke-width=".05" fill="#f2f3f5"/><path d="M1017.36-1124.5l-4.63-14.25h9.27z" fill="#f2f3f5"/><path d="M1017.36-1119.63l-6.7-20.62h13.4zm-2.57-17.62l2.56 7.9 2.57-7.9z" stroke="#f2f3f5" stroke-width=".05" fill="#f2f3f5"/><use xlink:href="#ag" transform="matrix(1,0,0,1,1011.7449207737919,-1174.442624671916) translate(0 16.177777777777777)"/><path d="M1218.86-1140.26h-3v-13.92h3zm-297.36-73.52l.06.77.16.67.27.65.36.6.46.54.54.46.6.37.65.26.64.15 286.18.08 1.12.1 1.14.27 1.1.45 1 .6.9.78.75.9.62 1 .45 1.08.3 1.2.02 24.4h-3l-.03-24.04-.16-.63-.27-.66-.37-.6-.46-.53-.54-.45-.6-.37-.65-.27-.68-.16-.77-.06-286.42-.07-1.2-.28-1.1-.45-1-.6-.9-.78-.75-.9-.62-1-.44-1.1-.27-1.14-.1-1.12v-80.64h3z" stroke="#f2f3f5" stroke-width=".05" fill="#f2f3f5"/><path d="M918.84-1295.87l1.16.07 1.16-.07.34-.07v1.68h-3v-1.68z" fill="#f2f3f5"/><path d="M918.85-1295.9l1.15.08 1.15-.08.38-.07v1.74h-3.05v-1.74zm-.33 1.62h2.96v-1.63l-.32.05-1.16.08-1.16-.08-.32-.06z" stroke="#f2f3f5" stroke-width=".05" fill="#f2f3f5"/><path d="M1217.36-1124.5l-4.63-14.25h9.27z" fill="#f2f3f5"/><path d="M1217.36-1119.63l-6.7-20.62h13.4zm-2.57-17.62l2.56 7.9 2.57-7.9z" stroke="#f2f3f5" stroke-width=".05" fill="#f2f3f5"/><use xlink:href="#ah" transform="matrix(1,0,0,1,1211.744920773792,-1178.442624671916) translate(0 16.177777777777777)"/><path d="M1366.54-1112.38a10 10 0 0 1 8.82-5.3h106c8.84 0 16 26.87 16 60 0 33.15-7.16 60-16 60h-106a10 10 0 0 1-8.82-5.3l-26.35-49.4a11.25 11.25 0 0 1 0-10.6z" stroke="#9e66e4" stroke-width="2" fill="#bb86fc"/><use xlink:href="#M" transform="matrix(1,0,0,1,1342.3622047244094,-1112.6713450289956) translate(18.254999999999995 48.775)"/><use xlink:href="#N" transform="matrix(1,0,0,1,1342.3622047244094,-1112.6713450289956) translate(74.205 48.775)"/><use xlink:href="#ai" transform="matrix(1,0,0,1,1342.3622047244094,-1112.6713450289956) translate(24.104999999999997 70.375)"/><use xlink:href="#aj" transform="matrix(1,0,0,1,1342.3622047244094,-1112.6713450289956) translate(56.055 70.375)"/><path d="M1355.76-951.87a7.8 7.8 0 0 1 7.55-5.8h128.06a4.6 4.6 0 0 1 4.46 5.8l-16.86 63.2a7.8 7.8 0 0 1-7.54 5.8h-128.06a4.6 4.6 0 0 1-4.45-5.8z" stroke="#9e66e4" stroke-width="2" fill="#bb86fc"/><use xlink:href="#ak" transform="matrix(1,0,0,1,1342.3622047244094,-952.6713450289957) translate(37.029999999999994 36.74375)"/><path d="M1418.86-1139.26h-3v-10.12h3zm-497.36-74.02l.06.77.16.67.27.65.36.6.46.54.54.46.6.37.65.26.64.15 486.18.08 1.12.1 1.14.27 1.1.45 1 .6.9.78.75.9.62 1 .45 1.08.3 1.2.02 28.7h-3l-.03-28.34-.16-.63-.27-.66-.37-.6-.46-.54-.54-.45-.6-.37-.65-.27-.68-.16-.77-.06-486.42-.07-1.2-.28-1.1-.45-1-.62-.9-.76-.75-.9-.62-1-.44-1.1-.27-1.14-.1-1.12v-81.14h3z" stroke="#f2f3f5" stroke-width=".05" fill="#f2f3f5"/><path d="M918.84-1295.87l1.16.07 1.16-.07.34-.07v1.68h-3v-1.68z" fill="#f2f3f5"/><path d="M918.85-1295.9l1.15.08 1.15-.08.38-.07v1.74h-3.05v-1.74zm-.33 1.62h2.96v-1.63l-.32.05-1.16.08-1.16-.08-.32-.06z" stroke="#f2f3f5" stroke-width=".05" fill="#f2f3f5"/><path d="M1417.36-1123.5l-4.63-14.26h9.27z" fill="#f2f3f5"/><path d="M1417.36-1118.64l-6.7-20.62h13.4zm-2.57-17.62l2.56 7.92 2.57-7.92z" stroke="#f2f3f5" stroke-width=".05" fill="#f2f3f5"/><use xlink:href="#al" transform="matrix(1,0,0,1,1411.744920773792,-1173.642624671916) translate(0 16.177777777777777)"/><path d="M417.77-997.5v15.92" stroke="#03dac6" stroke-width="3" fill="none"/><path d="M419.27-997.46h-3V-999h3z" stroke="#03dac6" stroke-width=".05" fill="#03dac6"/><path d="M417.77-965.82l-4.63-14.26h9.27z" stroke="#03dac6" stroke-width="3" fill="#03dac6"/><path d="M617.77-996.17v15.92" stroke="#03dac6" stroke-width="3" fill="none"/><path d="M619.27-996.13h-3v-1.54h3z" stroke="#03dac6" stroke-width=".05" fill="#03dac6"/><path d="M617.77-964.5l-4.63-14.25h9.27z" stroke="#03dac6" stroke-width="3" fill="#03dac6"/><path d="M817.77-997.5v15.92" stroke="#03dac6" stroke-width="3" fill="none"/><path d="M819.27-997.46h-3V-999h3z" stroke="#03dac6" stroke-width=".05" fill="#03dac6"/><path d="M817.77-965.82l-4.63-14.26h9.27z" stroke="#03dac6" stroke-width="3" fill="#03dac6"/><path d="M1017.77-996.17v15.92" stroke="#03dac6" stroke-width="3" fill="none"/><path d="M1019.27-996.13h-3v-1.54h3z" stroke="#03dac6" stroke-width=".05" fill="#03dac6"/><path d="M1017.77-964.5l-4.63-14.25h9.27z" stroke="#03dac6" stroke-width="3" fill="#03dac6"/><path d="M1217.77-996.17v15.92" stroke="#03dac6" stroke-width="3" fill="none"/><path d="M1219.27-996.13h-3v-1.54h3z" stroke="#03dac6" stroke-width=".05" fill="#03dac6"/><path d="M1217.77-964.5l-4.63-14.25h9.27z" stroke="#03dac6" stroke-width="3" fill="#03dac6"/><path d="M1417.77-995.17v15.92" stroke="#03dac6" stroke-width="3" fill="none"/><path d="M1419.27-995.13h-3v-1.54h3z" stroke="#03dac6" stroke-width=".05" fill="#03dac6"/><path d="M1417.77-963.5l-4.63-14.25h9.27z" stroke="#03dac6" stroke-width="3" fill="#03dac6"/><path d="M417.36-882.74v54.12a6 6 0 0 0 6 6h488a6 6 0 0 1 6 6v35" stroke="#03dac6" stroke-width="3" fill="none"/><path d="M418.86-882.7h-3v-1.54h3z" stroke="#03dac6" stroke-width=".05" fill="#03dac6"/><path d="M917.36-765.85l-4.63-14.27H922z" stroke="#03dac6" stroke-width="3" fill="#03dac6"/><path d="M617.36-881.4v53.45a6 6 0 0 0 6 6h288a6 6 0 0 1 6 6v34.33" stroke="#03dac6" stroke-width="3" fill="none"/><path d="M618.86-881.37h-3v-1.54h3z" stroke="#03dac6" stroke-width=".05" fill="#03dac6"/><path d="M917.36-765.85l-4.63-14.27H922z" stroke="#03dac6" stroke-width="3" fill="#03dac6"/><path d="M817.36-882.74V-826a6 6 0 0 0 6 6h88a6 6 0 0 1 6 6v32.38" stroke="#03dac6" stroke-width="3" fill="none"/><path d="M818.86-882.7h-3v-1.54h3z" stroke="#03dac6" stroke-width=".05" fill="#03dac6"/><path d="M917.36-765.85l-4.63-14.27H922z" stroke="#03dac6" stroke-width="3" fill="#03dac6"/><path d="M1017.36-881.4v53.45a6 6 0 0 1-6 6h-88a6 6 0 0 0-6 6v34.33" stroke="#03dac6" stroke-width="3" fill="none"/><path d="M1018.86-881.37h-3v-1.54h3z" stroke="#03dac6" stroke-width=".05" fill="#03dac6"/><path d="M917.36-765.85l-4.63-14.27H922z" stroke="#03dac6" stroke-width="3" fill="#03dac6"/><path d="M1217.36-881.4v53.45a6 6 0 0 1-6 6h-288a6 6 0 0 0-6 6v34.33" stroke="#03dac6" stroke-width="3" fill="none"/><path d="M1218.86-881.37h-3v-1.54h3z" stroke="#03dac6" stroke-width=".05" fill="#03dac6"/><path d="M917.36-765.85l-4.63-14.27H922z" stroke="#03dac6" stroke-width="3" fill="#03dac6"/><path d="M1417.36-880.4v52.94a6 6 0 0 1-6 6h-488a6 6 0 0 0-6 6v33.84" stroke="#03dac6" stroke-width="3" fill="none"/><path d="M1418.86-880.37h-3v-1.54h3z" stroke="#03dac6" stroke-width=".05" fill="#03dac6"/><path d="M917.36-765.85l-4.63-14.27H922z" stroke="#03dac6" stroke-width="3" fill="#03dac6"/><path d="M429.18-2034.7a10 10 0 0 1 8.82-5.3h106c8.84 0 16 26.86 16 60s-7.16 60-16 60H438a10 10 0 0 1-8.82-5.3l-26.36-49.4a11.25 11.25 0 0 1 0-10.6z" stroke="#9e66e4" stroke-width="2" fill="#bb86fc"/><g><use xlink:href="#am" transform="matrix(1,0,0,1,405,-2035) translate(24.529999999999994 38.4625)"/><use xlink:href="#an" transform="matrix(1,0,0,1,405,-2035) translate(63.48 38.4625)"/><use xlink:href="#ao" transform="matrix(1,0,0,1,405,-2035) translate(88.48 38.4625)"/><use xlink:href="#ap" transform="matrix(1,0,0,1,405,-2035) translate(51.529999999999994 60.0625)"/><use xlink:href="#aq" transform="matrix(1,0,0,1,405,-2035) translate(49.529999999999994 81.66250000000001)"/></g><path d="M665.7-1978.5H581.6v-3h84.07zm142.13 0h-103.2v-3h103.2z" stroke="#03dac6" stroke-width=".05" fill="#03dac6"/><path d="M809.43-1980.95l-.1.95.1.95.17.55h-1.8v-3h1.8z" fill="#03dac6"/><path d="M809.46-1980.95l-.1.95.1.95.18.58h-1.87v-3.06h1.87zm-1.64-.52v2.94h1.75l-.16-.5-.1-.97.1-.96.17-.5z" stroke="#03dac6" stroke-width=".05" fill="#03dac6"/><path d="M580.12-1975.36l-14.27-4.64 14.27-4.64z" fill="#03dac6"/><path d="M581.62-1973.3L561-1980l20.62-6.7zm-10.9-6.7l7.9 2.57v-5.14z" stroke="#03dac6" stroke-width=".05" fill="#03dac6"/><g><use xlink:href="#ar" transform="matrix(1,0,0,1,665.6923465521637,-1990.8000000002755) translate(0 14.4)"/></g><path d="M280-2034a6 6 0 0 1 6-6h68a6 6 0 0 1 6 6v148a6 6 0 0 1-6 6h-68a6 6 0 0 1-6-6z" fill="none"/><path d="M360-1880c-5.52 0-10-4.48-10-10v-60c0-5.52-4.48-10-10-10 5.52 0 10-4.48 10-10v-60c0-5.52 4.48-10 10-10" stroke="#9e66e4" stroke-width="2" fill="none"/><g><use xlink:href="#as" transform="matrix(1,0,0,1,285,-2035) translate(-2.950000000000003 57)"/><use xlink:href="#at" transform="matrix(1,0,0,1,285,-2035) translate(11 78.60000000000001)"/><use xlink:href="#au" transform="matrix(1,0,0,1,285,-2035) translate(-3 100.20000000000002)"/></g><path d="M1100-2054a6 6 0 0 1 6-6h68a6 6 0 0 1 6 6v148a6 6 0 0 1-6 6h-68a6 6 0 0 1-6-6z" fill="none"/><path d="M1100-1900c5.52 0 10-4.48 10-10v-60c0-5.52 4.48-10 10-10-5.52 0-10-4.48-10-10v-60c0-5.52-4.48-10-10-10" stroke="#9e66e4" stroke-width="2" fill="none"/><g><use xlink:href="#av" transform="matrix(1,0,0,1,1135,-2055) translate(0 46.19999999999999)"/><use xlink:href="#aw" transform="matrix(1,0,0,1,1135,-2055) translate(0 67.8)"/><use xlink:href="#ax" transform="matrix(1,0,0,1,1135,-2055) translate(0 89.4)"/><use xlink:href="#ay" transform="matrix(1,0,0,1,1135,-2055) translate(0 111)"/></g><path d="M528-1820c17.67 0 32 17.9 32 40s-14.33 40-32 40h-96c-17.67 0-32-17.9-32-40s14.33-40 32-40z" stroke="#9e66e4" stroke-width="2" fill="#bb86fc"/><g><use xlink:href="#az" transform="matrix(1,0,0,1,405,-1815) translate(59.55 38.4625)"/></g><path d="M480.4-1917.5v75.88" stroke="#03dac6" stroke-width="3" fill="none"/><path d="M481.9-1917.46h-3v-1.54h3z" stroke="#03dac6" stroke-width=".05" fill="#03dac6"/><path d="M480.4-1825.85l-4.62-14.27h9.27z" stroke="#03dac6" stroke-width="3" fill="#03dac6"/><path d="M727-1428.8a6 6 0 0 1 6-6h68a6 6 0 0 1 6 6v148a6 6 0 0 1-6 6h-68a6 6 0 0 1-6-6z" fill="none"/><path d="M807-1274.8c-5.5 0-10-4.48-10-10v-60c0-5.52-4.47-10-10-10 5.53 0 10-4.48 10-10v-60c0-5.52 4.5-10 10-10" stroke="#9e66e4" stroke-width="2" fill="none"/><g><use xlink:href="#aA" transform="matrix(1,0,0,1,732.0078740157479,-1429.7999999999997) translate(-9.900000000000006 46.19999999999999)"/><use xlink:href="#aB" transform="matrix(1,0,0,1,732.0078740157479,-1429.7999999999997) translate(2 67.8)"/><use xlink:href="#at" transform="matrix(1,0,0,1,732.0078740157479,-1429.7999999999997) translate(11 89.4)"/><use xlink:href="#au" transform="matrix(1,0,0,1,732.0078740157479,-1429.7999999999997) translate(-3 111)"/></g><defs><path fill="#fff" d="M24 0v-248h195v40H76v63h132v40H76v65h150V0H24" id="aC"/><path fill="#fff" d="M182 0l-62-99L58 0H3l86-130-79-118h55l55 88 55-88h55l-75 118L237 0h-55" id="aD"/><path fill="#fff" d="M240-174c0 40-23 61-54 70L253 0h-59l-57-94H76V0H24v-248c93 4 217-23 216 74zM76-134c48-2 112 12 112-38 0-48-66-32-112-35v73" id="aE"/><path fill="#fff" d="M67-125c0 53 21 87 73 88 37 1 54-22 65-47l45 17C233-25 199 4 140 4 58 4 20-42 15-125 8-235 124-281 211-232c18 10 29 29 36 50l-46 12c-8-25-30-41-62-41-52 0-71 34-72 86" id="aF"/><path fill="#fff" d="M18-269v-5l45-45h45v8l-60 42H18zM24 0v-248h52V0H24" id="aG"/><path fill="#fff" d="M24 0v-248h52V0H24" id="aH"/><path fill="#fff" d="M140-251c80 0 125 45 125 126S219 4 139 4C58 4 15-44 15-125s44-126 125-126zm-1 214c52 0 73-35 73-88 0-50-21-86-72-86-52 0-73 35-73 86s22 88 72 88" id="aI"/><g id="a"><use transform="matrix(0.08641975308641969,0,0,0.08641975308641969,0,0)" xlink:href="#aC"/><use transform="matrix(0.08641975308641969,0,0,0.08641975308641969,20.740740740740726,0)" xlink:href="#aD"/><use transform="matrix(0.08641975308641969,0,0,0.08641975308641969,41.48148148148145,0)" xlink:href="#aC"/><use transform="matrix(0.08641975308641969,0,0,0.08641975308641969,62.22222222222218,0)" xlink:href="#aE"/><use transform="matrix(0.08641975308641969,0,0,0.08641975308641969,84.60493827160488,0)" xlink:href="#aF"/><use transform="matrix(0.08641975308641969,0,0,0.08641975308641969,106.98765432098757,0)" xlink:href="#aG"/><use transform="matrix(0.08641975308641969,0,0,0.08641975308641969,115.62962962962956,0)" xlink:href="#aF"/><use transform="matrix(0.08641975308641969,0,0,0.08641975308641969,138.01234567901227,0)" xlink:href="#aH"/><use transform="matrix(0.08641975308641969,0,0,0.08641975308641969,146.65432098765424,0)" xlink:href="#aI"/></g><path fill="#fff" d="M175 0L67-191c6 58 2 128 3 191H24v-248h59L193-55c-6-58-2-129-3-193h46V0h-61" id="aJ"/><path fill="#fff" d="M24-248c120-7 223 5 221 122C244-46 201 0 124 0H24v-248zM76-40c74 7 117-18 117-86 0-67-45-88-117-82v168" id="aK"/><path fill="#fff" d="M147 0H94L2-248h55l64 206c17-72 42-137 63-206h54" id="aL"/><path fill="#fff" d="M238-95c0 69-44 99-111 99C63 4 22-25 22-93v-155h51v151c-1 38 19 59 55 60 90 1 49-130 58-211h52v153" id="aM"/><path fill="#fff" d="M199 0l-22-63H83L61 0H9l90-248h61L250 0h-51zm-33-102l-36-108c-10 38-24 72-36 108h72" id="aN"/><path fill="#fff" d="M24 0v-248h52v208h133V0H24" id="aO"/><g id="b"><use transform="matrix(0.08641975308641969,0,0,0.08641975308641969,0,0)" xlink:href="#aH"/><use transform="matrix(0.08641975308641969,0,0,0.08641975308641969,8.64197530864197,0)" xlink:href="#aJ"/><use transform="matrix(0.08641975308641969,0,0,0.08641975308641969,31.02469135802467,0)" xlink:href="#aK"/><use transform="matrix(0.08641975308641969,0,0,0.08641975308641969,53.40740740740737,0)" xlink:href="#aH"/><use transform="matrix(0.08641975308641969,0,0,0.08641975308641969,62.04938271604934,0)" xlink:href="#aL"/><use transform="matrix(0.08641975308641969,0,0,0.08641975308641969,82.79012345679007,0)" xlink:href="#aH"/><use transform="matrix(0.08641975308641969,0,0,0.08641975308641969,91.43209876543203,0)" xlink:href="#aK"/><use transform="matrix(0.08641975308641969,0,0,0.08641975308641969,113.81481481481475,0)" xlink:href="#aM"/><use transform="matrix(0.08641975308641969,0,0,0.08641975308641969,136.19753086419746,0)" xlink:href="#aN"/><use transform="matrix(0.08641975308641969,0,0,0.08641975308641969,158.58024691358017,0)" xlink:href="#aO"/></g><path fill="#fff" d="M14-72v-43h91v43H14" id="aP"/><use transform="matrix(0.08641975308641969,0,0,0.08641975308641969,0,0)" xlink:href="#aP" id="c"/><path fill="#fff" d="M67-125c0 53 21 87 73 88 37 1 54-22 65-47l45 17C233-25 199 4 140 4 58 4 20-42 15-125 8-235 124-281 211-232c18 10 29 29 36 50l-46 12c-8-25-30-41-62-41-52 0-71 34-72 86zm74 139c20 1 33 9 33 27 0 32-36 36-71 33V53c15 1 39 4 39-11 0-13-16-12-31-12l11-30h25" id="aQ"/><path fill="#fff" d="M109-320c28 0 66 44 74 0h24c-2 27-9 51-39 51-28 0-66-46-74 0H70c1-28 9-51 39-51zm31 69c80 0 125 45 125 126S219 4 139 4C58 4 15-44 15-125s44-126 125-126zm-1 214c52 0 73-35 73-88 0-50-21-86-72-86-52 0-73 35-73 86s22 88 72 88" id="aR"/><path fill="#fff" d="M169-182c-1-43-94-46-97-3 18 66 151 10 154 114 3 95-165 93-204 36-6-8-10-19-12-30l50-8c3 46 112 56 116 5-17-69-150-10-154-114-4-87 153-88 188-35 5 8 8 18 10 28" id="aS"/><g id="d"><use transform="matrix(0.08641975308641969,0,0,0.08641975308641969,0,0)" xlink:href="#aC"/><use transform="matrix(0.08641975308641969,0,0,0.08641975308641969,20.740740740740726,0)" xlink:href="#aO"/><use transform="matrix(0.08641975308641969,0,0,0.08641975308641969,39.66666666666664,0)" xlink:href="#aC"/><use transform="matrix(0.08641975308641969,0,0,0.08641975308641969,60.40740740740736,0)" xlink:href="#aH"/><use transform="matrix(0.08641975308641969,0,0,0.08641975308641969,69.04938271604934,0)" xlink:href="#aQ"/><use transform="matrix(0.08641975308641969,0,0,0.08641975308641969,91.43209876543203,0)" xlink:href="#aR"/><use transform="matrix(0.08641975308641969,0,0,0.08641975308641969,115.62962962962956,0)" xlink:href="#aC"/><use transform="matrix(0.08641975308641969,0,0,0.08641975308641969,136.3703703703703,0)" xlink:href="#aS"/></g><path fill="#fff" d="M205 0l-28-72H64L36 0H1l101-248h38L239 0h-34zm-38-99l-47-123c-12 45-31 82-46 123h93" id="aT"/><path fill="#fff" d="M30 0v-248h33v221h125V0H30" id="aU"/><path fill="#fff" d="M143 4C61 4 22-44 18-125c-5-107 100-154 193-111 17 8 29 25 37 43l-32 9c-13-25-37-40-76-40-61 0-88 39-88 99 0 61 29 100 91 101 35 0 62-11 79-27v-45h-74v-28h105v86C228-13 192 4 143 4" id="aV"/><path fill="#fff" d="M140-251c81 0 123 46 123 126C263-46 219 4 140 4 59 4 17-45 17-125s42-126 123-126zm0 227c63 0 89-41 89-101s-29-99-89-99c-61 0-89 39-89 99S79-25 140-24" id="aW"/><path fill="#fff" d="M233-177c-1 41-23 64-60 70L243 0h-38l-65-103H63V0H30v-248c88 3 205-21 203 71zM63-129c60-2 137 13 137-47 0-61-80-42-137-45v92" id="aX"/><path fill="#fff" d="M33 0v-248h34V0H33" id="aY"/><path fill="#fff" d="M127-220V0H93v-220H8v-28h204v28h-85" id="aZ"/><path fill="#fff" d="M240 0l2-218c-23 76-54 145-80 218h-23L58-218 59 0H30v-248h44l77 211c21-75 51-140 76-211h43V0h-30" id="ba"/><path fill="#fff" d="M185-189c-5-48-123-54-124 2 14 75 158 14 163 119 3 78-121 87-175 55-17-10-28-26-33-46l33-7c5 56 141 63 141-1 0-78-155-14-162-118-5-82 145-84 179-34 5 7 8 16 11 25" id="bb"/><g id="e"><use transform="matrix(0.06172839506172837,0,0,0.06172839506172837,0,0)" xlink:href="#aT"/><use transform="matrix(0.06172839506172837,0,0,0.06172839506172837,14.81481481481481,0)" xlink:href="#aU"/><use transform="matrix(0.06172839506172837,0,0,0.06172839506172837,27.160493827160483,0)" xlink:href="#aV"/><use transform="matrix(0.06172839506172837,0,0,0.06172839506172837,44.44444444444443,0)" xlink:href="#aW"/><use transform="matrix(0.06172839506172837,0,0,0.06172839506172837,61.72839506172837,0)" xlink:href="#aX"/><use transform="matrix(0.06172839506172837,0,0,0.06172839506172837,77.71604938271602,0)" xlink:href="#aY"/><use transform="matrix(0.06172839506172837,0,0,0.06172839506172837,83.88888888888886,0)" xlink:href="#aZ"/><use transform="matrix(0.06172839506172837,0,0,0.06172839506172837,97.40740740740738,0)" xlink:href="#ba"/><use transform="matrix(0.06172839506172837,0,0,0.06172839506172837,115.86419753086416,0)" xlink:href="#aW"/><use transform="matrix(0.06172839506172837,0,0,0.06172839506172837,133.1481481481481,0)" xlink:href="#bb"/></g><path fill="#fff" d="M30-248c118-7 216 8 213 122C240-48 200 0 122 0H30v-248zM63-27c89 8 146-16 146-99s-60-101-146-95v194" id="bc"/><path fill="#fff" d="M30 0v-248h187v28H63v79h144v27H63v87h162V0H30" id="bd"/><g id="f"><use transform="matrix(0.06172839506172837,0,0,0.06172839506172837,0,0)" xlink:href="#bc"/><use transform="matrix(0.06172839506172837,0,0,0.06172839506172837,15.987654320987648,0)" xlink:href="#bd"/></g><path fill="#fff" d="M30-248c87 1 191-15 191 75 0 78-77 80-158 76V0H30v-248zm33 125c57 0 124 11 124-50 0-59-68-47-124-48v98" id="be"/><path fill="#fff" d="M212-179c-10-28-35-45-73-45-59 0-87 40-87 99 0 60 29 101 89 101 43 0 62-24 78-52l27 14C228-24 195 4 139 4 59 4 22-46 18-125c-6-104 99-153 187-111 19 9 31 26 39 46zM142 18c19-1 33 8 33 26 0 31-30 33-64 32V58c18 2 39 4 41-13 1-15-18-13-34-13l12-32h19" id="bf"/><path fill="#fff" d="M184-316c-4 23-8 48-36 47s-64-43-75 0H57c4-23 8-48 36-47s64 44 74 0h17zM205 0l-28-72H64L36 0H1l101-248h38L239 0h-34zm-38-99l-47-123c-12 45-31 82-46 123h93" id="bg"/><g id="g"><use transform="matrix(0.06172839506172837,0,0,0.06172839506172837,0,0)" xlink:href="#be"/><use transform="matrix(0.06172839506172837,0,0,0.06172839506172837,14.81481481481481,0)" xlink:href="#aX"/><use transform="matrix(0.06172839506172837,0,0,0.06172839506172837,30.802469135802458,0)" xlink:href="#aW"/><use transform="matrix(0.06172839506172837,0,0,0.06172839506172837,48.0864197530864,0)" xlink:href="#aV"/><use transform="matrix(0.06172839506172837,0,0,0.06172839506172837,65.37037037037035,0)" xlink:href="#aT"/><use transform="matrix(0.06172839506172837,0,0,0.06172839506172837,80.18518518518516,0)" xlink:href="#ba"/><use transform="matrix(0.06172839506172837,0,0,0.06172839506172837,98.64197530864195,0)" xlink:href="#aT"/><use transform="matrix(0.06172839506172837,0,0,0.06172839506172837,113.45679012345676,0)" xlink:href="#bf"/><use transform="matrix(0.06172839506172837,0,0,0.06172839506172837,129.4444444444444,0)" xlink:href="#bg"/><use transform="matrix(0.06172839506172837,0,0,0.06172839506172837,144.2592592592592,0)" xlink:href="#aW"/></g><path fill="#fff" d="M190 0L58-211 59 0H30v-248h39L202-35l-2-213h31V0h-41" id="bh"/><path fill="#fff" d="M212-179c-10-28-35-45-73-45-59 0-87 40-87 99 0 60 29 101 89 101 43 0 62-24 78-52l27 14C228-24 195 4 139 4 59 4 22-46 18-125c-6-104 99-153 187-111 19 9 31 26 39 46" id="bi"/><g id="h"><use transform="matrix(0.05,0,0,0.05,0,0)" xlink:href="#aY"/><use transform="matrix(0.05,0,0,0.05,5,0)" xlink:href="#bh"/><use transform="matrix(0.05,0,0,0.05,17.950000000000003,0)" xlink:href="#aY"/><use transform="matrix(0.05,0,0,0.05,22.950000000000003,0)" xlink:href="#bi"/><use transform="matrix(0.05,0,0,0.05,35.900000000000006,0)" xlink:href="#aY"/><use transform="matrix(0.05,0,0,0.05,40.900000000000006,0)" xlink:href="#aW"/></g><path fill="#fff" d="M195 0l-74-108L45 0H8l94-129-87-119h37l69 98 67-98h37l-84 118L233 0h-38" id="bj"/><g id="i"><use transform="matrix(0.05,0,0,0.05,0,0)" xlink:href="#bd"/><use transform="matrix(0.05,0,0,0.05,12,0)" xlink:href="#bj"/><use transform="matrix(0.05,0,0,0.05,24,0)" xlink:href="#aY"/><use transform="matrix(0.05,0,0,0.05,29,0)" xlink:href="#bb"/><use transform="matrix(0.05,0,0,0.05,41,0)" xlink:href="#aZ"/><use transform="matrix(0.05,0,0,0.05,51.95,0)" xlink:href="#bd"/></g><g id="j"><use transform="matrix(0.05,0,0,0.05,0,0)" xlink:href="#be"/><use transform="matrix(0.05,0,0,0.05,12,0)" xlink:href="#bd"/><use transform="matrix(0.05,0,0,0.05,24,0)" xlink:href="#bb"/><use transform="matrix(0.05,0,0,0.05,36,0)" xlink:href="#bb"/><use transform="matrix(0.05,0,0,0.05,48,0)" xlink:href="#aW"/><use transform="matrix(0.05,0,0,0.05,62,0)" xlink:href="#aT"/><use transform="matrix(0.05,0,0,0.05,74,0)" xlink:href="#bb"/></g><g id="k"><use transform="matrix(0.05,0,0,0.05,0,0)" xlink:href="#be"/><use transform="matrix(0.05,0,0,0.05,10.65,0)" xlink:href="#aT"/><use transform="matrix(0.05,0,0,0.05,22.65,0)" xlink:href="#aX"/><use transform="matrix(0.05,0,0,0.05,35.6,0)" xlink:href="#aT"/></g><path fill="#fff" d="M137 0h-34L2-248h35l83 218 83-218h36" id="bk"/><path fill="#fff" d="M103-251c84 0 111 97 45 133-19 10-37 24-39 52H78c0-63 77-55 77-114 0-30-21-42-52-43-32 0-53 17-56 46l-32-2c7-45 34-72 88-72zM77 0v-35h34V0H77" id="bl"/><g id="l"><use transform="matrix(0.05,0,0,0.05,0,0)" xlink:href="#bk"/><use transform="matrix(0.05,0,0,0.05,12,0)" xlink:href="#aW"/><use transform="matrix(0.05,0,0,0.05,26,0)" xlink:href="#aZ"/><use transform="matrix(0.05,0,0,0.05,35.6,0)" xlink:href="#aT"/><use transform="matrix(0.05,0,0,0.05,47.6,0)" xlink:href="#aX"/><use transform="matrix(0.05,0,0,0.05,60.550000000000004,0)" xlink:href="#bl"/></g><use transform="matrix(0.05,0,0,0.05,0,0)" xlink:href="#aT" id="m"/><path fill="#fff" d="M197 0v-115H63V0H30v-248h33v105h134v-105h34V0h-34" id="bm"/><g id="n"><use transform="matrix(0.053086419753086415,0,0,0.053086419753086415,0,0)" xlink:href="#bd"/><use transform="matrix(0.053086419753086415,0,0,0.053086419753086415,12.74074074074074,0)" xlink:href="#bb"/><use transform="matrix(0.053086419753086415,0,0,0.053086419753086415,25.48148148148148,0)" xlink:href="#bi"/><use transform="matrix(0.053086419753086415,0,0,0.053086419753086415,39.23086419753086,0)" xlink:href="#aW"/><use transform="matrix(0.053086419753086415,0,0,0.053086419753086415,54.09506172839506,0)" xlink:href="#aU"/><use transform="matrix(0.053086419753086415,0,0,0.053086419753086415,64.71234567901234,0)" xlink:href="#bm"/><use transform="matrix(0.053086419753086415,0,0,0.053086419753086415,78.46172839506173,0)" xlink:href="#aT"/></g><g id="o"><use transform="matrix(0.053086419753086415,0,0,0.053086419753086415,0,0)" xlink:href="#bd"/><use transform="matrix(0.053086419753086415,0,0,0.053086419753086415,12.74074074074074,0)" xlink:href="#ba"/></g><path fill="#fff" d="M140-251c81 0 123 46 123 126C263-53 228-8 163 1c7 30 30 48 69 40v23c-55 16-95-15-103-61C56-3 17-48 17-125c0-80 42-126 123-126zm0 227c63 0 89-41 89-101s-29-99-89-99c-61 0-89 39-89 99S79-25 140-24" id="bn"/><path fill="#fff" d="M232-93c-1 65-40 97-104 97C67 4 28-28 28-90v-158h33c8 89-33 224 67 224 102 0 64-133 71-224h33v155" id="bo"/><g id="p"><use transform="matrix(0.053086419753086415,0,0,0.053086419753086415,0,0)" xlink:href="#bn"/><use transform="matrix(0.053086419753086415,0,0,0.053086419753086415,14.864197530864196,0)" xlink:href="#bo"/><use transform="matrix(0.053086419753086415,0,0,0.053086419753086415,28.61358024691358,0)" xlink:href="#bd"/><use transform="matrix(0.053086419753086415,0,0,0.053086419753086415,41.35432098765432,0)" xlink:href="#ba"/></g><path fill="#fff" d="M33-154v-36h34v36H33zM33 0v-36h34V0H33" id="bp"/><g id="q"><use transform="matrix(0.053086419753086415,0,0,0.053086419753086415,0,0)" xlink:href="#bk"/><use transform="matrix(0.053086419753086415,0,0,0.053086419753086415,12.74074074074074,0)" xlink:href="#aW"/><use transform="matrix(0.053086419753086415,0,0,0.053086419753086415,27.604938271604937,0)" xlink:href="#aZ"/><use transform="matrix(0.053086419753086415,0,0,0.053086419753086415,37.797530864197526,0)" xlink:href="#aT"/><use transform="matrix(0.053086419753086415,0,0,0.053086419753086415,50.53827160493827,0)" xlink:href="#aX"/><use transform="matrix(0.053086419753086415,0,0,0.053086419753086415,64.28765432098766,0)" xlink:href="#bp"/></g><path fill="#fff" d="M27 0v-27h64v-190l-56 39v-29l58-41h29v221h61V0H27" id="bq"/><use transform="matrix(0.053086419753086415,0,0,0.053086419753086415,0,0)" xlink:href="#bq" id="r"/><path fill="#fff" d="M16-82v-28h88v28H16" id="br"/><use transform="matrix(0.053086419753086415,0,0,0.053086419753086415,0,0)" xlink:href="#br" id="s"/><path fill="#fff" d="M87 75C49 33 22-17 22-94c0-76 28-126 65-167h31c-38 41-64 92-64 168S80 34 118 75H87" id="bs"/><path fill="#fff" d="M126-127c33 6 58 20 58 59 0 88-139 92-164 29-3-8-5-16-6-25l32-3c6 27 21 44 54 44 32 0 52-15 52-46 0-38-36-46-79-43v-28c39 1 72-4 72-42 0-27-17-43-46-43-28 0-47 15-49 41l-32-3c6-42 35-63 81-64 48-1 79 21 79 65 0 36-21 52-52 59" id="bt"/><path fill="#fff" d="M33-261c38 41 65 92 65 168S71 34 33 75H2C39 34 66-17 66-93S39-220 2-261h31" id="bu"/><g id="t"><use transform="matrix(0.053086419753086415,0,0,0.053086419753086415,0,0)" xlink:href="#bs"/><use transform="matrix(0.053086419753086415,0,0,0.053086419753086415,6.317283950617283,0)" xlink:href="#bq"/><use transform="matrix(0.053086419753086415,0,0,0.053086419753086415,16.934567901234566,0)" xlink:href="#bt"/><use transform="matrix(0.053086419753086415,0,0,0.053086419753086415,27.55185185185185,0)" xlink:href="#bu"/></g><path fill="#fff" d="M68-36c1 33-1 63-14 82H32c9-13 17-26 17-46H33v-36h35zM33-154v-36h35v36H33" id="bv"/><g id="u"><use transform="matrix(0.053086419753086415,0,0,0.053086419753086415,0,0)" xlink:href="#be"/><use transform="matrix(0.053086419753086415,0,0,0.053086419753086415,12.74074074074074,0)" xlink:href="#aZ"/><use transform="matrix(0.053086419753086415,0,0,0.053086419753086415,22.24320987654321,0)" xlink:href="#bv"/></g><path fill="#fff" d="M101-251c82-7 93 87 43 132L82-64C71-53 59-42 53-27h129V0H18c2-99 128-94 128-182 0-28-16-43-45-43s-46 15-49 41l-32-3c6-41 34-60 81-64" id="bw"/><use transform="matrix(0.053086419753086415,0,0,0.053086419753086415,0,0)" xlink:href="#bw" id="v"/><g id="w"><use transform="matrix(0.053086419753086415,0,0,0.053086419753086415,0,0)" xlink:href="#bs"/><use transform="matrix(0.053086419753086415,0,0,0.053086419753086415,6.317283950617283,0)" xlink:href="#bq"/><use transform="matrix(0.053086419753086415,0,0,0.053086419753086415,16.934567901234566,0)" xlink:href="#bw"/><use transform="matrix(0.053086419753086415,0,0,0.053086419753086415,27.55185185185185,0)" xlink:href="#bu"/></g><g id="x"><use transform="matrix(0.053086419753086415,0,0,0.053086419753086415,0,0)" xlink:href="#be"/><use transform="matrix(0.053086419753086415,0,0,0.053086419753086415,12.74074074074074,0)" xlink:href="#bc"/><use transform="matrix(0.053086419753086415,0,0,0.053086419753086415,26.490123456790123,0)" xlink:href="#aZ"/><use transform="matrix(0.053086419753086415,0,0,0.053086419753086415,35.992592592592594,0)" xlink:href="#bv"/></g><use transform="matrix(0.053086419753086415,0,0,0.053086419753086415,0,0)" xlink:href="#bt" id="y"/><g id="z"><use transform="matrix(0.053086419753086415,0,0,0.053086419753086415,0,0)" xlink:href="#bs"/><use transform="matrix(0.053086419753086415,0,0,0.053086419753086415,6.317283950617283,0)" xlink:href="#bw"/><use transform="matrix(0.053086419753086415,0,0,0.053086419753086415,16.934567901234566,0)" xlink:href="#bw"/><use transform="matrix(0.053086419753086415,0,0,0.053086419753086415,27.55185185185185,0)" xlink:href="#bu"/></g><g id="A"><use transform="matrix(0.053086419753086415,0,0,0.053086419753086415,0,0)" xlink:href="#be"/><use transform="matrix(0.053086419753086415,0,0,0.053086419753086415,12.74074074074074,0)" xlink:href="#aU"/><use transform="matrix(0.053086419753086415,0,0,0.053086419753086415,23.358024691358025,0)" xlink:href="#bv"/></g><path fill="#fff" d="M155-56V0h-30v-56H8v-25l114-167h33v167h35v25h-35zm-30-156c-27 46-58 90-88 131h88v-131" id="bx"/><use transform="matrix(0.053086419753086415,0,0,0.053086419753086415,0,0)" xlink:href="#bx" id="B"/><path fill="#fff" d="M54-142c48-35 137-8 131 61C196 18 31 33 14-55l32-4c7 23 22 37 52 37 35-1 51-22 54-58 4-55-73-65-99-34H22l8-134h141v27H59" id="by"/><g id="C"><use transform="matrix(0.053086419753086415,0,0,0.053086419753086415,0,0)" xlink:href="#bs"/><use transform="matrix(0.053086419753086415,0,0,0.053086419753086415,6.317283950617283,0)" xlink:href="#bx"/><use transform="matrix(0.053086419753086415,0,0,0.053086419753086415,16.934567901234566,0)" xlink:href="#by"/><use transform="matrix(0.053086419753086415,0,0,0.053086419753086415,27.55185185185185,0)" xlink:href="#bu"/></g><path fill="#fff" d="M160-131c35 5 61 23 61 61C221 17 115-2 30 0v-248c76 3 177-17 177 60 0 33-19 50-47 57zm-97-11c50-1 110 9 110-42 0-47-63-36-110-37v79zm0 115c55-2 124 14 124-45 0-56-70-42-124-44v89" id="bz"/><g id="D"><use transform="matrix(0.053086419753086415,0,0,0.053086419753086415,0,0)" xlink:href="#be"/><use transform="matrix(0.053086419753086415,0,0,0.053086419753086415,12.74074074074074,0)" xlink:href="#bb"/><use transform="matrix(0.053086419753086415,0,0,0.053086419753086415,25.48148148148148,0)" xlink:href="#bc"/><use transform="matrix(0.053086419753086415,0,0,0.053086419753086415,39.23086419753086,0)" xlink:href="#bz"/><use transform="matrix(0.053086419753086415,0,0,0.053086419753086415,51.971604938271604,0)" xlink:href="#bv"/></g><use transform="matrix(0.053086419753086415,0,0,0.053086419753086415,0,0)" xlink:href="#by" id="E"/><path fill="#fff" d="M108 0H70L1-190h34L89-25l56-165h34" id="bA"/><path fill="#fff" d="M100-194c62-1 85 37 85 99 1 63-27 99-86 99S16-35 15-95c0-66 28-99 85-99zM99-20c44 1 53-31 53-75 0-43-8-75-51-75s-53 32-53 75 10 74 51 75" id="bB"/><path fill="#fff" d="M59-47c-2 24 18 29 38 22v24C64 9 27 4 27-40v-127H5v-23h24l9-43h21v43h35v23H59v120" id="bC"/><g id="F"><use transform="matrix(0.053086419753086415,0,0,0.053086419753086415,0,0)" xlink:href="#bA"/><use transform="matrix(0.053086419753086415,0,0,0.053086419753086415,9.555555555555555,0)" xlink:href="#bB"/><use transform="matrix(0.053086419753086415,0,0,0.053086419753086415,20.17283950617284,0)" xlink:href="#bC"/><use transform="matrix(0.053086419753086415,0,0,0.053086419753086415,25.48148148148148,0)" xlink:href="#bB"/></g><path fill="#fff" d="M117-194c89-4 53 116 60 194h-32v-121c0-31-8-49-39-48C34-167 62-67 57 0H25l-1-190h30c1 10-1 24 2 32 11-22 29-35 61-36" id="bD"/><path fill="#fff" d="M84 4C-5 8 30-112 23-190h32v120c0 31 7 50 39 49 72-2 45-101 50-169h31l1 190h-30c-1-10 1-25-2-33-11 22-28 36-60 37" id="bE"/><path fill="#fff" d="M24 0v-261h32V0H24" id="bF"/><g id="G"><use transform="matrix(0.053086419753086415,0,0,0.053086419753086415,0,0)" xlink:href="#bD"/><use transform="matrix(0.053086419753086415,0,0,0.053086419753086415,10.617283950617283,0)" xlink:href="#bE"/><use transform="matrix(0.053086419753086415,0,0,0.053086419753086415,21.234567901234566,0)" xlink:href="#bF"/><use transform="matrix(0.053086419753086415,0,0,0.053086419753086415,25.428395061728395,0)" xlink:href="#bB"/><use transform="matrix(0.053086419753086415,0,0,0.053086419753086415,36.04567901234568,0)" xlink:href="#bv"/></g><path fill="#fff" d="M110-160c48 1 74 30 74 79 0 53-28 85-80 85-65 0-83-55-86-122-5-90 50-162 133-122 14 7 22 21 27 39l-31 6c-5-40-67-38-82-6-9 19-15 44-15 74 11-20 30-34 60-33zm-7 138c34 0 49-23 49-58s-16-56-50-56c-29 0-50 16-49 49 1 36 15 65 50 65" id="bG"/><use transform="matrix(0.053086419753086415,0,0,0.053086419753086415,0,0)" xlink:href="#bG" id="H"/><path fill="#fff" d="M100-194c63 0 86 42 84 106H49c0 40 14 67 53 68 26 1 43-12 49-29l28 8c-11 28-37 45-77 45C44 4 14-33 15-96c1-61 26-98 85-98zm52 81c6-60-76-77-97-28-3 7-6 17-6 28h103" id="bH"/><path fill="#fff" d="M210-169c-67 3-38 105-44 169h-31v-121c0-29-5-50-35-48C34-165 62-65 56 0H25l-1-190h30c1 10-1 24 2 32 10-44 99-50 107 0 11-21 27-35 58-36 85-2 47 119 55 194h-31v-121c0-29-5-49-35-48" id="bI"/><g id="I"><use transform="matrix(0.053086419753086415,0,0,0.053086419753086415,0,0)" xlink:href="#bH"/><use transform="matrix(0.053086419753086415,0,0,0.053086419753086415,10.617283950617283,0)" xlink:href="#bI"/></g><path fill="#fff" d="M115-194c53 0 69 39 70 98 0 66-23 100-70 100C84 3 66-7 56-30L54 0H23l1-261h32v101c10-23 28-34 59-34zm-8 174c40 0 45-34 45-75 0-40-5-75-45-74-42 0-51 32-51 76 0 43 10 73 51 73" id="bJ"/><path fill="#fff" d="M114-163C36-179 61-72 57 0H25l-1-190h30c1 12-1 29 2 39 6-27 23-49 58-41v29" id="bK"/><path fill="#fff" d="M141-36C126-15 110 5 73 4 37 3 15-17 15-53c-1-64 63-63 125-63 3-35-9-54-41-54-24 1-41 7-42 31l-33-3c5-37 33-52 76-52 45 0 72 20 72 64v82c-1 20 7 32 28 27v20c-31 9-61-2-59-35zM48-53c0 20 12 33 32 33 41-3 63-29 60-74-43 2-92-5-92 41" id="bL"/><path fill="#fff" d="M96-169c-40 0-48 33-48 73s9 75 48 75c24 0 41-14 43-38l32 2c-6 37-31 61-74 61-59 0-76-41-82-99-10-93 101-131 147-64 4 7 5 14 7 22l-32 3c-4-21-16-35-41-35" id="bM"/><g id="J"><use transform="matrix(0.053086419753086415,0,0,0.053086419753086415,0,0)" xlink:href="#bJ"/><use transform="matrix(0.053086419753086415,0,0,0.053086419753086415,10.617283950617283,0)" xlink:href="#bK"/><use transform="matrix(0.053086419753086415,0,0,0.053086419753086415,16.934567901234566,0)" xlink:href="#bL"/><use transform="matrix(0.053086419753086415,0,0,0.053086419753086415,27.55185185185185,0)" xlink:href="#bD"/><use transform="matrix(0.053086419753086415,0,0,0.053086419753086415,38.169135802469135,0)" xlink:href="#bM"/><use transform="matrix(0.053086419753086415,0,0,0.053086419753086415,47.72469135802469,0)" xlink:href="#bB"/><use transform="matrix(0.053086419753086415,0,0,0.053086419753086415,58.341975308641985,0)" xlink:href="#bv"/></g><path fill="#fff" d="M24-231v-30h32v30H24zM24 0v-190h32V0H24" id="bN"/><g id="K"><use transform="matrix(0.05,0,0,0.05,0,0)" xlink:href="#bb"/><use transform="matrix(0.05,0,0,0.05,12,0)" xlink:href="#bN"/><use transform="matrix(0.05,0,0,0.05,15.949999999999998,0)" xlink:href="#bI"/></g><path fill="#fff" d="M135-143c-3-34-86-38-87 0 15 53 115 12 119 90S17 21 10-45l28-5c4 36 97 45 98 0-10-56-113-15-118-90-4-57 82-63 122-42 12 7 21 19 24 35" id="bO"/><g id="L"><use transform="matrix(0.06234567901234567,0,0,0.06234567901234567,0,0)" xlink:href="#bA"/><use transform="matrix(0.06234567901234567,0,0,0.06234567901234567,11.22222222222222,0)" xlink:href="#bB"/><use transform="matrix(0.06234567901234567,0,0,0.06234567901234567,23.691358024691354,0)" xlink:href="#bC"/><use transform="matrix(0.06234567901234567,0,0,0.06234567901234567,29.92592592592592,0)" xlink:href="#bB"/><use transform="matrix(0.06234567901234567,0,0,0.06234567901234567,42.39506172839505,0)" xlink:href="#bO"/></g><path fill="#fff" d="M143-315c12 16 30 27 39 46-29 2-38-16-57-24-19 8-29 26-59 24 10-19 29-29 41-46h36zM30 0v-248h187v28H63v79h144v27H63v87h162V0H30" id="bP"/><g id="M"><use transform="matrix(0.05,0,0,0.05,0,0)" xlink:href="#bk"/><use transform="matrix(0.05,0,0,0.05,12,0)" xlink:href="#aW"/><use transform="matrix(0.05,0,0,0.05,26,0)" xlink:href="#bi"/><use transform="matrix(0.05,0,0,0.05,38.95,0)" xlink:href="#bP"/></g><g id="N"><use transform="matrix(0.05,0,0,0.05,0,0)" xlink:href="#bk"/><use transform="matrix(0.05,0,0,0.05,12,0)" xlink:href="#aW"/><use transform="matrix(0.05,0,0,0.05,26,0)" xlink:href="#aZ"/><use transform="matrix(0.05,0,0,0.05,36.6,0)" xlink:href="#aW"/><use transform="matrix(0.05,0,0,0.05,50.6,0)" xlink:href="#bo"/></g><g id="O"><use transform="matrix(0.05,0,0,0.05,0,0)" xlink:href="#bh"/><use transform="matrix(0.05,0,0,0.05,12.950000000000001,0)" xlink:href="#aW"/></g><g id="P"><use transform="matrix(0.05,0,0,0.05,0,0)" xlink:href="#bs"/><use transform="matrix(0.05,0,0,0.05,5.95,0)" xlink:href="#bw"/><use transform="matrix(0.05,0,0,0.05,15.949999999999998,0)" xlink:href="#bw"/><use transform="matrix(0.05,0,0,0.05,25.950000000000003,0)" xlink:href="#bu"/></g><g id="Q"><use transform="matrix(0.05,0,0,0.05,0,0)" xlink:href="#be"/><use transform="matrix(0.05,0,0,0.05,12,0)" xlink:href="#aU"/></g><path fill="#fff" d="M115-194c55 1 70 41 70 98S169 2 115 4C84 4 66-9 55-30l1 105H24l-1-265h31l2 30c10-21 28-34 59-34zm-8 174c40 0 45-34 45-75s-6-73-45-74c-42 0-51 32-51 76 0 43 10 73 51 73" id="bQ"/><path fill="#fff" d="M118-107v75H92v-75H18v-26h74v-75h26v75h74v26h-74" id="bR"/><g id="R"><use transform="matrix(0.05,0,0,0.05,0,0)" xlink:href="#bQ"/><use transform="matrix(0.05,0,0,0.05,10,0)" xlink:href="#bF"/><use transform="matrix(0.05,0,0,0.05,13.949999999999998,0)" xlink:href="#bR"/><use transform="matrix(0.05,0,0,0.05,24.45,0)" xlink:href="#bR"/></g><g id="S"><use transform="matrix(0.05,0,0,0.05,0,0)" xlink:href="#bs"/><use transform="matrix(0.05,0,0,0.05,5.95,0)" xlink:href="#bx"/><use transform="matrix(0.05,0,0,0.05,15.949999999999998,0)" xlink:href="#by"/><use transform="matrix(0.05,0,0,0.05,25.950000000000003,0)" xlink:href="#bu"/></g><g id="T"><use transform="matrix(0.05,0,0,0.05,0,0)" xlink:href="#be"/><use transform="matrix(0.05,0,0,0.05,12,0)" xlink:href="#bb"/><use transform="matrix(0.05,0,0,0.05,24,0)" xlink:href="#bc"/><use transform="matrix(0.05,0,0,0.05,36.95,0)" xlink:href="#bz"/></g><path fill="#fff" d="M85-194c31 0 48 13 60 33l-1-100h32l1 261h-30c-2-10 0-23-3-31C134-8 116 4 85 4 32 4 16-35 15-94c0-66 23-100 70-100zm9 24c-40 0-46 34-46 75 0 40 6 74 45 74 42 0 51-32 51-76 0-42-9-74-50-73" id="bS"/><g id="U"><use transform="matrix(0.05,0,0,0.05,0,0)" xlink:href="#bQ"/><use transform="matrix(0.05,0,0,0.05,10,0)" xlink:href="#bO"/><use transform="matrix(0.05,0,0,0.05,19,0)" xlink:href="#bS"/><use transform="matrix(0.05,0,0,0.05,29,0)" xlink:href="#bJ"/><use transform="matrix(0.05,0,0,0.05,39,0)" xlink:href="#bR"/><use transform="matrix(0.05,0,0,0.05,49.5,0)" xlink:href="#bR"/></g><g id="V"><use transform="matrix(0.05,0,0,0.05,0,0)" xlink:href="#bh"/><use transform="matrix(0.05,0,0,0.05,12.950000000000001,0)" xlink:href="#bo"/><use transform="matrix(0.05,0,0,0.05,25.900000000000002,0)" xlink:href="#aU"/><use transform="matrix(0.05,0,0,0.05,35.900000000000006,0)" xlink:href="#aW"/></g><g id="W"><use transform="matrix(0.05,0,0,0.05,0,0)" xlink:href="#bD"/><use transform="matrix(0.05,0,0,0.05,10,0)" xlink:href="#bE"/><use transform="matrix(0.05,0,0,0.05,20,0)" xlink:href="#bF"/><use transform="matrix(0.05,0,0,0.05,23.95,0)" xlink:href="#bB"/><use transform="matrix(0.05,0,0,0.05,33.95,0)" xlink:href="#bR"/><use transform="matrix(0.05,0,0,0.05,44.45,0)" xlink:href="#bR"/></g><g id="X"><use transform="matrix(0.05,0,0,0.05,0,0)" xlink:href="#bs"/><use transform="matrix(0.05,0,0,0.05,5.95,0)" xlink:href="#bq"/><use transform="matrix(0.05,0,0,0.05,15.949999999999998,0)" xlink:href="#bw"/><use transform="matrix(0.05,0,0,0.05,25.950000000000003,0)" xlink:href="#bu"/></g><g id="Y"><use transform="matrix(0.05,0,0,0.05,0,0)" xlink:href="#be"/><use transform="matrix(0.05,0,0,0.05,12,0)" xlink:href="#bc"/><use transform="matrix(0.05,0,0,0.05,24.950000000000003,0)" xlink:href="#aZ"/></g><g id="Z"><use transform="matrix(0.05,0,0,0.05,0,0)" xlink:href="#bQ"/><use transform="matrix(0.05,0,0,0.05,10,0)" xlink:href="#bS"/><use transform="matrix(0.05,0,0,0.05,20,0)" xlink:href="#bC"/><use transform="matrix(0.05,0,0,0.05,25,0)" xlink:href="#bR"/><use transform="matrix(0.05,0,0,0.05,35.5,0)" xlink:href="#bR"/></g><g id="aa"><use transform="matrix(0.05,0,0,0.05,0,0)" xlink:href="#bs"/><use transform="matrix(0.05,0,0,0.05,5.95,0)" xlink:href="#bq"/><use transform="matrix(0.05,0,0,0.05,15.949999999999998,0)" xlink:href="#bt"/><use transform="matrix(0.05,0,0,0.05,25.950000000000003,0)" xlink:href="#bu"/></g><g id="ab"><use transform="matrix(0.05,0,0,0.05,0,0)" xlink:href="#be"/><use transform="matrix(0.05,0,0,0.05,12,0)" xlink:href="#aZ"/></g><g id="ac"><use transform="matrix(0.05,0,0,0.05,0,0)" xlink:href="#bQ"/><use transform="matrix(0.05,0,0,0.05,10,0)" xlink:href="#bC"/><use transform="matrix(0.05,0,0,0.05,15,0)" xlink:href="#bR"/><use transform="matrix(0.05,0,0,0.05,25.5,0)" xlink:href="#bR"/></g><path fill="#54c45e" d="M27 0v-27h64v-190l-56 39v-29l58-41h29v221h61V0H27" id="bT"/><use transform="matrix(0.056172839506172835,0,0,0.056172839506172835,0,0)" xlink:href="#bT" id="ad"/><path fill="#54c45e" d="M101-251c82-7 93 87 43 132L82-64C71-53 59-42 53-27h129V0H18c2-99 128-94 128-182 0-28-16-43-45-43s-46 15-49 41l-32-3c6-41 34-60 81-64" id="bU"/><use transform="matrix(0.056172839506172835,0,0,0.056172839506172835,0,0)" xlink:href="#bU" id="ae"/><path fill="#54c45e" d="M126-127c33 6 58 20 58 59 0 88-139 92-164 29-3-8-5-16-6-25l32-3c6 27 21 44 54 44 32 0 52-15 52-46 0-38-36-46-79-43v-28c39 1 72-4 72-42 0-27-17-43-46-43-28 0-47 15-49 41l-32-3c6-42 35-63 81-64 48-1 79 21 79 65 0 36-21 52-52 59" id="bV"/><use transform="matrix(0.056172839506172835,0,0,0.056172839506172835,0,0)" xlink:href="#bV" id="af"/><path fill="#54c45e" d="M155-56V0h-30v-56H8v-25l114-167h33v167h35v25h-35zm-30-156c-27 46-58 90-88 131h88v-131" id="bW"/><use transform="matrix(0.056172839506172835,0,0,0.056172839506172835,0,0)" xlink:href="#bW" id="ag"/><path fill="#54c45e" d="M54-142c48-35 137-8 131 61C196 18 31 33 14-55l32-4c7 23 22 37 52 37 35-1 51-22 54-58 4-55-73-65-99-34H22l8-134h141v27H59" id="bX"/><use transform="matrix(0.056172839506172835,0,0,0.056172839506172835,0,0)" xlink:href="#bX" id="ah"/><g id="ai"><use transform="matrix(0.05,0,0,0.05,0,0)" xlink:href="#bd"/><use transform="matrix(0.05,0,0,0.05,12,0)" xlink:href="#ba"/></g><g id="aj"><use transform="matrix(0.05,0,0,0.05,0,0)" xlink:href="#bz"/><use transform="matrix(0.05,0,0,0.05,12,0)" xlink:href="#aX"/><use transform="matrix(0.05,0,0,0.05,24.950000000000003,0)" xlink:href="#aT"/><use transform="matrix(0.05,0,0,0.05,36.95,0)" xlink:href="#bh"/><use transform="matrix(0.05,0,0,0.05,49.900000000000006,0)" xlink:href="#bi"/><use transform="matrix(0.05,0,0,0.05,62.85,0)" xlink:href="#aW"/></g><g id="ak"><use transform="matrix(0.05,0,0,0.05,0,0)" xlink:href="#bJ"/><use transform="matrix(0.05,0,0,0.05,10,0)" xlink:href="#bK"/><use transform="matrix(0.05,0,0,0.05,15.949999999999998,0)" xlink:href="#bL"/><use transform="matrix(0.05,0,0,0.05,25.950000000000003,0)" xlink:href="#bD"/><use transform="matrix(0.05,0,0,0.05,35.95,0)" xlink:href="#bM"/><use transform="matrix(0.05,0,0,0.05,44.95,0)" xlink:href="#bB"/><use transform="matrix(0.05,0,0,0.05,54.95,0)" xlink:href="#bR"/><use transform="matrix(0.05,0,0,0.05,65.45,0)" xlink:href="#bR"/></g><path fill="#54c45e" d="M110-160c48 1 74 30 74 79 0 53-28 85-80 85-65 0-83-55-86-122-5-90 50-162 133-122 14 7 22 21 27 39l-31 6c-5-40-67-38-82-6-9 19-15 44-15 74 11-20 30-34 60-33zm-7 138c34 0 49-23 49-58s-16-56-50-56c-29 0-50 16-49 49 1 36 15 65 50 65" id="bY"/><use transform="matrix(0.056172839506172835,0,0,0.056172839506172835,0,0)" xlink:href="#bY" id="al"/><g id="am"><use transform="matrix(0.05,0,0,0.05,0,0)" xlink:href="#bC"/><use transform="matrix(0.05,0,0,0.05,5,0)" xlink:href="#bB"/><use transform="matrix(0.05,0,0,0.05,15,0)" xlink:href="#bC"/><use transform="matrix(0.05,0,0,0.05,20,0)" xlink:href="#bL"/><use transform="matrix(0.05,0,0,0.05,30,0)" xlink:href="#bF"/></g><g id="an"><use transform="matrix(0.05,0,0,0.05,0,0)" xlink:href="#bS"/><use transform="matrix(0.05,0,0,0.05,10,0)" xlink:href="#bH"/></g><g id="ao"><use transform="matrix(0.05,0,0,0.05,0,0)" xlink:href="#bA"/><use transform="matrix(0.05,0,0,0.05,9,0)" xlink:href="#bB"/><use transform="matrix(0.05,0,0,0.05,19,0)" xlink:href="#bC"/><use transform="matrix(0.05,0,0,0.05,24,0)" xlink:href="#bB"/><use transform="matrix(0.05,0,0,0.05,34,0)" xlink:href="#bO"/><use transform="matrix(0.05,0,0,0.05,43,0)" xlink:href="#bv"/></g><g id="ap"><use transform="matrix(0.05,0,0,0.05,0,0)" xlink:href="#bD"/><use transform="matrix(0.05,0,0,0.05,10,0)" xlink:href="#bE"/><use transform="matrix(0.05,0,0,0.05,20,0)" xlink:href="#bF"/><use transform="matrix(0.05,0,0,0.05,23.95,0)" xlink:href="#bB"/><use transform="matrix(0.05,0,0,0.05,33.95,0)" xlink:href="#bO"/><use transform="matrix(0.05,0,0,0.05,42.95,0)" xlink:href="#bv"/></g><g id="aq"><use transform="matrix(0.05,0,0,0.05,0,0)" xlink:href="#bJ"/><use transform="matrix(0.05,0,0,0.05,10,0)" xlink:href="#bK"/><use transform="matrix(0.05,0,0,0.05,15.949999999999998,0)" xlink:href="#bL"/><use transform="matrix(0.05,0,0,0.05,25.950000000000003,0)" xlink:href="#bD"/><use transform="matrix(0.05,0,0,0.05,35.95,0)" xlink:href="#bM"/><use transform="matrix(0.05,0,0,0.05,44.95,0)" xlink:href="#bB"/><use transform="matrix(0.05,0,0,0.05,54.95,0)" xlink:href="#bO"/></g><g id="ar"><use transform="matrix(0.05,0,0,0.05,0,0)" xlink:href="#bh"/><use transform="matrix(0.05,0,0,0.05,12.950000000000001,0)" xlink:href="#bg"/><use transform="matrix(0.05,0,0,0.05,24.950000000000003,0)" xlink:href="#aW"/></g><g id="as"><use transform="matrix(0.05,0,0,0.05,0,0)" xlink:href="#bC"/><use transform="matrix(0.05,0,0,0.05,5,0)" xlink:href="#bB"/><use transform="matrix(0.05,0,0,0.05,15,0)" xlink:href="#bC"/><use transform="matrix(0.05,0,0,0.05,20,0)" xlink:href="#bL"/><use transform="matrix(0.05,0,0,0.05,30,0)" xlink:href="#bN"/><use transform="matrix(0.05,0,0,0.05,33.95,0)" xlink:href="#bO"/></g><g id="at"><use transform="matrix(0.05,0,0,0.05,0,0)" xlink:href="#bS"/><use transform="matrix(0.05,0,0,0.05,10,0)" xlink:href="#bB"/><use transform="matrix(0.05,0,0,0.05,20,0)" xlink:href="#bO"/></g><g id="au"><use transform="matrix(0.05,0,0,0.05,0,0)" xlink:href="#bA"/><use transform="matrix(0.05,0,0,0.05,9,0)" xlink:href="#bB"/><use transform="matrix(0.05,0,0,0.05,19,0)" xlink:href="#bC"/><use transform="matrix(0.05,0,0,0.05,24,0)" xlink:href="#bB"/><use transform="matrix(0.05,0,0,0.05,34,0)" xlink:href="#bO"/></g><path fill="#fff" d="M96-169c-40 0-48 33-48 73s9 75 48 75c24 0 41-14 43-38l32 2c-6 37-31 61-74 61-59 0-76-41-82-99-10-93 101-131 147-64 4 7 5 14 7 22l-32 3c-4-21-16-35-41-35zm3 187c19-1 33 8 33 26 0 31-30 33-64 32V58c18 2 39 4 41-13 1-15-18-13-34-13L87 0h19" id="bZ"/><path fill="#fff" d="M141-36C126-15 110 5 73 4 37 3 15-17 15-53c-1-64 63-63 125-63 3-35-9-54-41-54-24 1-41 7-42 31l-33-3c5-37 33-52 76-52 45 0 72 20 72 64v82c-1 20 7 32 28 27v20c-31 9-61-2-59-35zM48-53c0 20 12 33 32 33 41-3 63-29 60-74-43 2-92-5-92 41zm117-205c-3 23-9 48-36 47-26-1-65-44-74 0H39c4-23 8-48 36-47s64 44 74 0h16" id="ca"/><g id="av"><use transform="matrix(0.05,0,0,0.05,0,0)" xlink:href="#bK"/><use transform="matrix(0.05,0,0,0.05,5.95,0)" xlink:href="#bH"/><use transform="matrix(0.05,0,0,0.05,15.949999999999998,0)" xlink:href="#bQ"/><use transform="matrix(0.05,0,0,0.05,25.950000000000003,0)" xlink:href="#bH"/><use transform="matrix(0.05,0,0,0.05,35.95,0)" xlink:href="#bC"/><use transform="matrix(0.05,0,0,0.05,40.95,0)" xlink:href="#bN"/><use transform="matrix(0.05,0,0,0.05,44.900000000000006,0)" xlink:href="#bZ"/><use transform="matrix(0.05,0,0,0.05,53.900000000000006,0)" xlink:href="#ca"/><use transform="matrix(0.05,0,0,0.05,63.900000000000006,0)" xlink:href="#bB"/></g><path fill="#fff" d="M100-194c63 0 86 42 84 106H49c0 40 14 67 53 68 26 1 43-12 49-29l28 8c-11 28-37 45-77 45C44 4 14-33 15-96c1-61 26-98 85-98zm52 81c6-60-76-77-97-28-3 7-6 17-6 28h103zm-74-98c8-23 27-35 38-54h36v5l-58 49H78" id="cb"/><g id="aw"><use transform="matrix(0.05,0,0,0.05,0,0)" xlink:href="#bL"/><use transform="matrix(0.05,0,0,0.05,10,0)" xlink:href="#bC"/><use transform="matrix(0.05,0,0,0.05,15,0)" xlink:href="#cb"/></g><path fill="#fff" d="M101-251c68 0 85 55 85 127S166 4 100 4C33 4 14-52 14-124c0-73 17-127 87-127zm-1 229c47 0 54-49 54-102s-4-102-53-102c-51 0-55 48-55 102 0 53 5 102 54 102" id="cc"/><g id="ax"><use transform="matrix(0.05,0,0,0.05,0,0)" xlink:href="#by"/><use transform="matrix(0.05,0,0,0.05,10,0)" xlink:href="#cc"/></g><path fill="#fff" d="M9 0v-24l116-142H16v-24h144v24L44-24h123V0H9" id="cd"/><g id="ay"><use transform="matrix(0.05,0,0,0.05,0,0)" xlink:href="#bA"/><use transform="matrix(0.05,0,0,0.05,9,0)" xlink:href="#bH"/><use transform="matrix(0.05,0,0,0.05,19,0)" xlink:href="#cd"/><use transform="matrix(0.05,0,0,0.05,28,0)" xlink:href="#bH"/><use transform="matrix(0.05,0,0,0.05,38,0)" xlink:href="#bO"/></g><path fill="#fff" d="M63-220v92h138v28H63V0H30v-248h175v28H63" id="ce"/><g id="az"><use transform="matrix(0.05,0,0,0.05,0,0)" xlink:href="#ce"/><use transform="matrix(0.05,0,0,0.05,10.950000000000001,0)" xlink:href="#aY"/><use transform="matrix(0.05,0,0,0.05,15.950000000000001,0)" xlink:href="#ba"/></g><path fill="#fff" d="M206 0h-36l-40-164L89 0H53L-1-190h32L70-26l43-164h34l41 164 42-164h31" id="cf"/><path fill="#fff" d="M106-169C34-169 62-67 57 0H25v-261h32l-1 103c12-21 28-36 61-36 89 0 53 116 60 194h-32v-121c2-32-8-49-39-48" id="cg"/><g id="aA"><use transform="matrix(0.05,0,0,0.05,0,0)" xlink:href="#bO"/><use transform="matrix(0.05,0,0,0.05,9,0)" xlink:href="#cf"/><use transform="matrix(0.05,0,0,0.05,21.950000000000003,0)" xlink:href="#bN"/><use transform="matrix(0.05,0,0,0.05,25.900000000000002,0)" xlink:href="#bC"/><use transform="matrix(0.05,0,0,0.05,30.900000000000002,0)" xlink:href="#bM"/><use transform="matrix(0.05,0,0,0.05,39.900000000000006,0)" xlink:href="#cg"/></g><g id="aB"><use transform="matrix(0.05,0,0,0.05,0,0)" xlink:href="#bM"/><use transform="matrix(0.05,0,0,0.05,9,0)" xlink:href="#bL"/><use transform="matrix(0.05,0,0,0.05,19,0)" xlink:href="#bO"/><use transform="matrix(0.05,0,0,0.05,28,0)" xlink:href="#bH"/></g></defs></g></svg>